# xmcd
#
# Track frame offsets:
# 150
# 12290
# 23444
# 39326
# 53218
# 65851
# 79658
# 92700
# 105214
# 120926
# 133083
# 146210
#
# Disc length: 2121 seconds
#
# Revision: 0
# Processed by: cddbd v1.5.2PL0 Copyright (c) Steve Scherf et al.
# Submitted via: Audion 3.0.2 (http://www.panic.com/audion/)
#
DISCID=9408470c
DTITLE=Joni James - Ti Voglio Bene
DYEAR=1900
DGENRE=
TTITLE0=Santa Lucia
TTITLE1=I Have But One Heart
TTITLE2=Non Dimenticar
TTITLE3=Tornaa Sorriento
TTITLE4=You'Re Breaking My Heart
TTITLE5=Anema E Core
TTITLE6=O Sole Mio
TTITLE7=Dicitencello
TTITLE8=Chitarra Romana
TTITLE9=Luna Rossa
TTITLE10=Per Un Bacio D'Amor
TTITLE11=Arriverderci Roma
EXTD=
EXTT0=
EXTT1=
EXTT2=
EXTT3=
EXTT4=
EXTT5=
EXTT6=
EXTT7=
EXTT8=
EXTT9=
EXTT10=
EXTT11=
PLAYORDER=
